<svg width="259" height="544" viewBox="0 0 259 544" fill="none" xmlns="http://www.w3.org/2000/svg">
<path d="M117.414 538.374C124.248 545.209 135.328 545.209 142.163 538.374L253.532 427.005C260.366 420.171 260.366 409.09 253.532 402.256C246.698 395.422 235.617 395.422 228.783 402.256L129.788 501.251L30.7932 402.256C23.959 395.422 12.8787 395.422 6.04448 402.256C-0.7897 409.09 -0.7897 420.171 6.04448 427.005L117.414 538.374ZM79.5 311.563C79.5 346.934 89.8073 361.092 96.871 381.336C104.158 402.221 112.288 437.922 112.288 526H147.288C147.288 435.997 139.024 395.905 129.917 369.806C120.587 343.065 114.5 339.044 114.5 311.563L79.5 311.563ZM94.9706 0.603792C93.9199 46.9974 110.686 74.1342 126.167 96.4082C141.433 118.371 152.5 132.498 152.5 157.514L187.5 157.514C187.5 119.678 168.872 96.5251 154.907 76.4325C141.158 56.651 129.156 36.9568 129.962 1.39621L94.9706 0.603792ZM152.5 157.514C152.5 181.871 138.721 200.013 119.838 223.603C102.221 245.611 79.5 273.068 79.5 311.563L114.5 311.563C114.5 287.207 128.279 269.065 147.162 245.475C164.779 223.466 187.5 196.009 187.5 157.514L152.5 157.514Z" fill="#35A664"/>
</svg>
